<svg version="1.1" id="Layer_1" xmlns="http://www.w3.org/2000/svg" xmlns:xlink="http://www.w3.org/1999/xlink" x="0px" y="0px"
	 viewBox="0 0 1106 128" style="enable-background:new 0 0 1106 128;" xml:space="preserve">
<style type="text/css">
	.st0{fill:#FFFFFF;}
</style>
<g>
	<path d="M64,127.5C28.99,127.5,0.5,99.01,0.5,64S28.99,0.5,64,0.5h978c35.01,0,63.5,28.49,63.5,63.5s-28.49,63.5-63.5,63.5H64z"/>
	<path class="st0" d="M1042,1c34.74,0,63,28.26,63,63c0,34.74-28.26,63-63,63H64C29.26,127,1,98.74,1,64C1,29.26,29.26,1,64,1H1042
		 M1042,0H64C28.65,0,0,28.65,0,64v0c0,35.35,28.65,64,64,64h978c35.35,0,64-28.65,64-64v0C1106,28.65,1077.35,0,1042,0L1042,0z"/>
</g>
</svg>